# xmcd CD database file
#
# Track frame offsets:
#	187
#	12095
#	27590
#	41255
#	55425
#	71062
#	83270
#	98092
#	113322
#	127600
#	142250
#	156717
#	170055
#	185555
#	200157
#	211730
#	225272
#	237390
#	251120
#
# Disc length: 3536 seconds
#
# Revision: 0
# Processed by: cddbd v1.5.1PL0 Copyright (c) Steve Scherf et al.
# Submitted via: CDex 1.51
#
DISCID=030dce13
DTITLE=Mildred Bailey - The Rockin' Chair Lady
DYEAR=1900
DGENRE=Jazz
TTITLE0=Rockin' Chair
TTITLE1=Willow Tree
TTITLE2=Honeysuckle Rose
TTITLE3=Sqeeze Me
TTITLE4=Down Hearted Blues
TTITLE5=When That Man Is Dead And Gone
TTITLE6=Jenny
TTITLE7=Georgia On My Mind
TTITLE8=Sometimes I'm Happy
TTITLE9=I'm Afraid Of Myself
TTITLE10=Everything Depends On You
TTITLE11=Lover,Come Back To Me
TTITLE12=All Too Soon
TTITLE13=It's So Peaceful In The Country
TTITLE14=Wherever You Are
TTITLE15=I Think Of You
TTITLE16=More Than You Know
TTITLE17=Cry,Cry,Cry
TTITLE18=Blue Prelude
EXTD=
EXTT0=
EXTT1=
EXTT2=
EXTT3=
EXTT4=
EXTT5=
EXTT6=
EXTT7=
EXTT8=
EXTT9=
EXTT10=
EXTT11=
EXTT12=
EXTT13=
EXTT14=
EXTT15=
EXTT16=
EXTT17=
EXTT18=
PLAYORDER=
